<svg width="24" height="24" viewBox="0 0 24 24" fill="none" xmlns="http://www.w3.org/2000/svg">
<path fill-rule="evenodd" clip-rule="evenodd" d="M13.9085 5.12652C13.0379 4.29116 11.6634 4.29116 10.7928 5.12652L6.16639 9.56585C6.05303 9.67462 5.97679 9.81631 5.94845 9.97083C5.39432 12.9927 5.35342 16.0863 5.82746 19.1218L5.93998 19.8423H8.91644V13.6309C8.91644 13.2167 9.25222 12.8809 9.66644 12.8809H15.0349C15.4491 12.8809 15.7849 13.2167 15.7849 13.6309V19.8423H18.7613L18.8738 19.1218C19.3479 16.0863 19.307 12.9927 18.7528 9.97083C18.7245 9.81631 18.6483 9.67462 18.5349 9.56585L13.9085 5.12652ZM9.75428 4.0442C11.2052 2.65193 13.4961 2.65193 14.947 4.0442L19.5735 8.48353C19.914 8.81033 20.1431 9.23602 20.2282 9.70028C20.8128 12.8879 20.8559 16.1512 20.3559 19.3532L20.1751 20.5107C20.1004 20.9894 19.6881 21.3423 19.2036 21.3423H15.0349C14.6206 21.3423 14.2849 21.0065 14.2849 20.5923V14.3809H10.4164V20.5923C10.4164 21.0065 10.0807 21.3423 9.66644 21.3423H5.49771C5.01323 21.3423 4.60094 20.9894 4.52619 20.5107L4.34542 19.3532C3.84537 16.1512 3.88852 12.8879 4.47305 9.70028C4.55819 9.23602 4.78727 8.81033 5.12784 8.48353L9.75428 4.0442Z" fill="#DCDAE4"/>
</svg>
