<svg width="144" height="50" viewBox="0 0 144 50" fill="none" xmlns="http://www.w3.org/2000/svg">
<circle cx="25" cy="25" r="25" fill="#0FDD72"/>
<path fill-rule="evenodd" clip-rule="evenodd" d="M17.5355 16.6035C18.1387 16.4528 18.7732 16.6803 19.1432 17.1798L30.1214 32.0007C30.4914 32.5002 30.5241 33.1734 30.2042 33.7065C29.8843 34.2395 29.2748 34.5273 28.6599 34.4357L20.6899 33.2487L17.4963 35.6143C16.8142 36.1195 15.8516 35.9762 15.3464 35.2941L11.687 30.3538C11.1817 29.6717 11.3251 28.7091 12.0072 28.2039L15.2008 25.8382L16.3879 17.8683C16.4795 17.2534 16.9324 16.7542 17.5355 16.6035Z" fill="white"/>
<path fill-rule="evenodd" clip-rule="evenodd" d="M23.9148 11.5966C24.0398 10.757 24.8218 10.1777 25.6614 10.3028C29.5496 10.8819 33.2218 12.9463 35.7478 16.3565C38.2739 19.7667 39.1785 23.881 38.5994 27.7693C38.4743 28.6089 37.6923 29.1881 36.8527 29.0631C36.0131 28.938 35.4339 28.156 35.5589 27.3164C36.0229 24.2016 35.299 20.915 33.2777 18.1862C31.2564 15.4574 28.3234 13.8071 25.2086 13.3432C24.369 13.2182 23.7897 12.4362 23.9148 11.5966ZM23.0091 17.6775C23.1341 16.8379 23.9161 16.2586 24.7557 16.3837C25.8863 16.5521 26.9869 16.9298 27.9944 17.5084C29.0654 18.1235 30.0286 18.9642 30.8076 20.0159C32.3231 22.0619 32.8658 24.5316 32.5185 26.8636C32.3934 27.7032 31.6114 28.2824 30.7718 28.1574C29.9322 28.0323 29.353 27.2503 29.478 26.4107C29.7102 24.8521 29.3482 23.2102 28.3374 21.8456C27.8153 21.1407 27.1741 20.5822 26.4635 20.174C25.7933 19.7892 25.0591 19.5367 24.3028 19.4241C23.4633 19.2991 22.884 18.5171 23.0091 17.6775Z" fill="white"/>
<path d="M60.968 13.752C63.752 13.512 65.56 12.472 66.344 11.08C67.128 12.472 68.936 13.512 71.704 13.752L72.44 12.12C69.688 11.88 68.248 10.92 67.88 9.928H71.8V8.248H60.904V9.928H64.808C64.44 10.92 63 11.88 60.264 12.12L60.968 13.752ZM69.288 19.72C69.288 20.456 68.28 20.776 66.312 20.776C64.344 20.776 63.336 20.456 63.336 19.72C63.336 18.968 64.344 18.648 66.312 18.648C68.28 18.648 69.288 18.968 69.288 19.72ZM73 16.008V14.328H59.688V16.008H65.288V17.08C62.728 17.288 61.208 18.2 61.208 19.72C61.208 21.416 63.128 22.376 66.312 22.376C69.496 22.376 71.432 21.416 71.432 19.72C71.432 18.216 69.928 17.304 67.4 17.096V16.008H73ZM83.0788 8.936H79.7988V7.56H77.6708V8.936H74.4068V10.6H83.0788V8.936ZM77.1428 13.768C77.1428 13.032 77.7828 12.664 78.7428 12.664C79.6868 12.664 80.3428 13.032 80.3428 13.768C80.3428 14.52 79.6868 14.888 78.7428 14.888C77.7828 14.888 77.1428 14.52 77.1428 13.768ZM82.3588 13.768C82.3588 12.168 80.8708 11.064 78.7428 11.064C76.6308 11.064 75.1268 12.168 75.1268 13.768C75.1268 15.384 76.6308 16.488 78.7428 16.488C80.8708 16.488 82.3588 15.384 82.3588 13.768ZM76.1828 19.176H83.8948V22.392H86.0068V17.48H76.1828V19.176ZM87.9588 11.432H86.0068V7.656H83.8948V16.872H86.0068V13.176H87.9588V11.432ZM101.398 7.656H99.2855V15.192H101.398V7.656ZM92.9495 10.168H94.5015V13.144C93.9895 13.176 93.4615 13.192 92.9495 13.208V10.168ZM98.2455 12.872C97.6855 12.936 97.1255 12.984 96.5335 13.032V10.168H97.6855V8.536H89.7495V10.168H90.9175V13.24L89.3815 13.256L89.5895 14.92C92.1335 14.92 95.4455 14.84 98.3415 14.36L98.2455 12.872ZM93.5415 20.632V19.752H101.398V15.784H91.4295V17.4H99.3015V18.248H91.4455V22.264H101.814V20.632H93.5415ZM116.692 12.872C113.348 12.408 111.652 10.488 111.652 8.776V8.072H109.396V8.776C109.396 10.504 107.716 12.408 104.356 12.872L105.156 14.568C107.732 14.184 109.588 12.984 110.532 11.4C111.476 12.984 113.316 14.184 115.892 14.568L116.692 12.872ZM117.172 15.656H103.86V17.368H109.412V22.392H111.524V17.368H117.172V15.656ZM61.88 31.04C61.88 29.888 62.664 29.216 63.752 29.216C64.84 29.216 65.64 29.888 65.64 31.04C65.64 32.176 64.84 32.864 63.752 32.864C62.664 32.864 61.88 32.176 61.88 31.04ZM69.896 30.24V31.84H67.544C67.608 31.568 67.64 31.312 67.64 31.04C67.64 30.752 67.608 30.496 67.56 30.24H69.896ZM69.896 33.52V35.28H72.008V26.64H69.896V28.56H66.648C65.944 27.856 64.936 27.424 63.752 27.424C61.576 27.424 59.88 28.944 59.88 31.04C59.88 33.12 61.576 34.64 63.752 34.64C64.904 34.64 65.912 34.224 66.616 33.52H69.896ZM67.016 39.76C65.08 39.76 64.056 39.344 64.056 38.48C64.056 37.616 65.08 37.2 67.016 37.2C68.952 37.2 69.992 37.616 69.992 38.48C69.992 39.344 68.952 39.76 67.016 39.76ZM67.016 35.568C63.912 35.568 61.976 36.64 61.976 38.48C61.976 40.304 63.912 41.376 67.016 41.376C70.136 41.376 72.072 40.304 72.072 38.48C72.072 36.64 70.136 35.568 67.016 35.568ZM82.7428 32.752C81.1428 33.088 79.6868 33.184 77.0628 33.2V29.488H81.5588V27.808H74.9668V34.896H76.1988C79.4628 34.896 81.1428 34.816 82.9508 34.416L82.7428 32.752ZM78.6148 36.176H76.5028V41.12H86.5348V39.44H78.6148V36.176ZM86.0068 30.656V26.64H83.8948V37.296H86.0068V32.384H87.9588V30.656H86.0068ZM93.1575 36.272C92.0855 36.272 91.3655 35.104 91.3655 32.912C91.3655 30.736 92.0855 29.568 93.1575 29.568C94.2455 29.568 94.9655 30.736 94.9655 32.912C94.9655 35.104 94.2455 36.272 93.1575 36.272ZM99.3815 26.624V31.936H96.9175C96.6295 29.28 95.1415 27.664 93.1575 27.664C90.9655 27.664 89.3495 29.68 89.3495 32.912C89.3495 36.16 90.9655 38.192 93.1575 38.192C95.2055 38.192 96.7095 36.464 96.9335 33.648H99.3815V41.408H101.494V26.624H99.3815ZM113.273 28.5938V40H111.203V31.0078L108.461 31.9141V30.2422L113.039 28.5938H113.273ZM124.633 33.3359V35.25C124.633 36.125 124.544 36.8724 124.367 37.4922C124.19 38.112 123.935 38.6198 123.602 39.0156C123.268 39.4062 122.87 39.6953 122.406 39.8828C121.943 40.0651 121.427 40.1562 120.859 40.1562C120.406 40.1562 119.984 40.099 119.594 39.9844C119.203 39.8646 118.852 39.6823 118.539 39.4375C118.232 39.1875 117.966 38.8698 117.742 38.4844C117.523 38.099 117.354 37.638 117.234 37.1016C117.12 36.5651 117.062 35.9479 117.062 35.25V33.3359C117.062 32.4609 117.151 31.7161 117.328 31.1016C117.51 30.487 117.768 29.9844 118.102 29.5938C118.435 29.2031 118.833 28.9193 119.297 28.7422C119.76 28.5599 120.276 28.4688 120.844 28.4688C121.302 28.4688 121.724 28.526 122.109 28.6406C122.5 28.7552 122.849 28.9349 123.156 29.1797C123.469 29.4193 123.734 29.7318 123.953 30.1172C124.172 30.4974 124.339 30.9557 124.453 31.4922C124.573 32.0234 124.633 32.638 124.633 33.3359ZM122.57 35.5312V33.0469C122.57 32.6094 122.544 32.2292 122.492 31.9062C122.445 31.5781 122.375 31.2995 122.281 31.0703C122.188 30.8411 122.07 30.6562 121.93 30.5156C121.789 30.3698 121.628 30.263 121.445 30.1953C121.263 30.1276 121.062 30.0938 120.844 30.0938C120.573 30.0938 120.331 30.1484 120.117 30.2578C119.904 30.362 119.724 30.5286 119.578 30.7578C119.432 30.987 119.32 31.2917 119.242 31.6719C119.169 32.0469 119.133 32.5052 119.133 33.0469V35.5312C119.133 35.9688 119.156 36.3516 119.203 36.6797C119.255 37.0078 119.328 37.2891 119.422 37.5234C119.521 37.7578 119.638 37.9505 119.773 38.1016C119.914 38.2474 120.076 38.3568 120.258 38.4297C120.44 38.4974 120.641 38.5312 120.859 38.5312C121.135 38.5312 121.378 38.4766 121.586 38.3672C121.799 38.2578 121.979 38.0859 122.125 37.8516C122.271 37.612 122.38 37.3021 122.453 36.9219C122.531 36.5365 122.57 36.0729 122.57 35.5312ZM133.773 33.3359V35.25C133.773 36.125 133.685 36.8724 133.508 37.4922C133.331 38.112 133.076 38.6198 132.742 39.0156C132.409 39.4062 132.01 39.6953 131.547 39.8828C131.083 40.0651 130.568 40.1562 130 40.1562C129.547 40.1562 129.125 40.099 128.734 39.9844C128.344 39.8646 127.992 39.6823 127.68 39.4375C127.372 39.1875 127.107 38.8698 126.883 38.4844C126.664 38.099 126.495 37.638 126.375 37.1016C126.26 36.5651 126.203 35.9479 126.203 35.25V33.3359C126.203 32.4609 126.292 31.7161 126.469 31.1016C126.651 30.487 126.909 29.9844 127.242 29.5938C127.576 29.2031 127.974 28.9193 128.438 28.7422C128.901 28.5599 129.417 28.4688 129.984 28.4688C130.443 28.4688 130.865 28.526 131.25 28.6406C131.641 28.7552 131.99 28.9349 132.297 29.1797C132.609 29.4193 132.875 29.7318 133.094 30.1172C133.312 30.4974 133.479 30.9557 133.594 31.4922C133.714 32.0234 133.773 32.638 133.773 33.3359ZM131.711 35.5312V33.0469C131.711 32.6094 131.685 32.2292 131.633 31.9062C131.586 31.5781 131.516 31.2995 131.422 31.0703C131.328 30.8411 131.211 30.6562 131.07 30.5156C130.93 30.3698 130.768 30.263 130.586 30.1953C130.404 30.1276 130.203 30.0938 129.984 30.0938C129.714 30.0938 129.471 30.1484 129.258 30.2578C129.044 30.362 128.865 30.5286 128.719 30.7578C128.573 30.987 128.461 31.2917 128.383 31.6719C128.31 32.0469 128.273 32.5052 128.273 33.0469V35.5312C128.273 35.9688 128.297 36.3516 128.344 36.6797C128.396 37.0078 128.469 37.2891 128.562 37.5234C128.661 37.7578 128.779 37.9505 128.914 38.1016C129.055 38.2474 129.216 38.3568 129.398 38.4297C129.581 38.4974 129.781 38.5312 130 38.5312C130.276 38.5312 130.518 38.4766 130.727 38.3672C130.94 38.2578 131.12 38.0859 131.266 37.8516C131.411 37.612 131.521 37.3021 131.594 36.9219C131.672 36.5365 131.711 36.0729 131.711 35.5312ZM142.914 33.3359V35.25C142.914 36.125 142.826 36.8724 142.648 37.4922C142.471 38.112 142.216 38.6198 141.883 39.0156C141.549 39.4062 141.151 39.6953 140.688 39.8828C140.224 40.0651 139.708 40.1562 139.141 40.1562C138.688 40.1562 138.266 40.099 137.875 39.9844C137.484 39.8646 137.133 39.6823 136.82 39.4375C136.513 39.1875 136.247 38.8698 136.023 38.4844C135.805 38.099 135.635 37.638 135.516 37.1016C135.401 36.5651 135.344 35.9479 135.344 35.25V33.3359C135.344 32.4609 135.432 31.7161 135.609 31.1016C135.792 30.487 136.049 29.9844 136.383 29.5938C136.716 29.2031 137.115 28.9193 137.578 28.7422C138.042 28.5599 138.557 28.4688 139.125 28.4688C139.583 28.4688 140.005 28.526 140.391 28.6406C140.781 28.7552 141.13 28.9349 141.438 29.1797C141.75 29.4193 142.016 29.7318 142.234 30.1172C142.453 30.4974 142.62 30.9557 142.734 31.4922C142.854 32.0234 142.914 32.638 142.914 33.3359ZM140.852 35.5312V33.0469C140.852 32.6094 140.826 32.2292 140.773 31.9062C140.727 31.5781 140.656 31.2995 140.562 31.0703C140.469 30.8411 140.352 30.6562 140.211 30.5156C140.07 30.3698 139.909 30.263 139.727 30.1953C139.544 30.1276 139.344 30.0938 139.125 30.0938C138.854 30.0938 138.612 30.1484 138.398 30.2578C138.185 30.362 138.005 30.5286 137.859 30.7578C137.714 30.987 137.602 31.2917 137.523 31.6719C137.451 32.0469 137.414 32.5052 137.414 33.0469V35.5312C137.414 35.9688 137.438 36.3516 137.484 36.6797C137.536 37.0078 137.609 37.2891 137.703 37.5234C137.802 37.7578 137.919 37.9505 138.055 38.1016C138.195 38.2474 138.357 38.3568 138.539 38.4297C138.721 38.4974 138.922 38.5312 139.141 38.5312C139.417 38.5312 139.659 38.4766 139.867 38.3672C140.081 38.2578 140.26 38.0859 140.406 37.8516C140.552 37.612 140.661 37.3021 140.734 36.9219C140.812 36.5365 140.852 36.0729 140.852 35.5312Z" fill="#0FDD72"/>
</svg>
